<?xml version="1.0" standalone="no"?>
<!DOCTYPE svg PUBLIC "-//W3C//DTD SVG 20010904//EN"
 "http://www.w3.org/TR/2001/REC-SVG-20010904/DTD/svg10.dtd">
<svg version="1.0" xmlns="http://www.w3.org/2000/svg"
 width="512.000000pt" height="512.000000pt" viewBox="0 0 512.000000 512.000000"
 preserveAspectRatio="xMidYMid meet">
<metadata>
Created by potrace 1.16, written by Peter Selinger 2001-2019
</metadata>
<g transform="translate(0.000000,512.000000) scale(0.100000,-0.100000)"
fill="#000000" stroke="none">
<path d="M2017 4243 l-208 -3 -83 -44 c-109 -56 -212 -135 -327 -249 -247
-244 -345 -460 -379 -831 -26 -276 34 -564 181 -861 60 -123 147 -260 158
-250 2 2 -21 64 -51 137 -54 129 -91 240 -91 265 0 7 -5 13 -10 13 -5 0 -7 7
-3 15 3 8 1 15 -4 15 -13 0 -63 183 -90 328 -16 89 -13 301 5 408 21 121 76
293 125 388 134 260 431 519 685 595 127 38 203 44 710 52 275 5 545 12 600
17 98 8 -736 11 -1218 5z"/>
<path d="M1513 4229 c-245 -31 -410 -135 -495 -309 -43 -90 -54 -130 -35 -130
8 0 30 33 51 73 20 39 51 88 69 108 97 108 298 210 498 254 62 13 63 13 19 13
-25 0 -73 -4 -107 -9z"/>
<path d="M2400 4083 c-445 -74 -870 -423 -1099 -903 -90 -190 -103 -234 -108
-380 -4 -110 -1 -137 21 -223 46 -178 128 -336 250 -479 81 -96 110 -107 43
-16 -148 198 -239 470 -224 670 19 247 229 635 472 872 148 144 267 229 427
306 120 57 167 74 267 95 81 17 306 36 330 28 11 -4 13 -3 6 4 -24 25 -285 43
-385 26z"/>
<path d="M4175 3915 c26 -68 46 -147 55 -223 7 -56 12 -481 13 -1178 2 -989 0
-1096 -15 -1161 -23 -100 -64 -177 -130 -248 -138 -148 -256 -171 -808 -161
-599 10 -1139 62 -1430 136 -41 10 -76 17 -79 15 -8 -9 203 -103 304 -135 55
-18 105 -36 110 -40 21 -15 457 -150 575 -179 76 -18 219 -46 293 -56 15 -2
31 -6 35 -9 4 -2 30 -7 57 -10 28 -3 91 -11 140 -17 50 -6 110 -13 135 -15 25
-3 69 -9 98 -13 60 -9 361 -7 407 3 17 4 37 8 45 9 77 15 104 24 164 54 38 19
88 49 111 67 42 31 135 141 160 188 26 52 58 166 62 228 3 36 8 68 12 72 7 9
-12 585 -23 653 -3 17 -7 100 -10 185 -4 85 -9 227 -13 315 -5 88 -8 187 -8
220 1 33 2 218 4 410 4 413 -4 477 -80 650 -29 65 -207 296 -184 240z m-195
-2996 c-45 -39 -139 -84 -215 -104 -136 -36 -677 -28 -1028 16 -144 18 -384
64 -397 76 -3 3 119 2 270 -2 640 -17 844 -20 1000 -13 164 6 348 30 379 48
30 17 26 9 -9 -21z"/>
<path d="M967 3773 c-4 -3 -7 -16 -6 -27 0 -19 1 -19 10 3 10 24 8 36 -4 24z"/>
<path d="M2480 3769 c-88 -10 -223 -47 -305 -84 -200 -88 -416 -294 -519 -495
-66 -128 -65 -145 2 -45 123 185 381 393 583 470 154 59 237 76 404 82 127 4
166 2 250 -16 54 -11 101 -19 103 -17 8 9 -131 68 -200 85 -92 23 -222 32
-318 20z"/>
<path d="M3466 3726 c64 -103 139 -271 179 -400 22 -70 43 -126 47 -126 11 0
-2 95 -28 198 -30 119 -93 236 -174 322 l-61 65 37 -59z"/>
<path d="M1479 3598 c-107 -128 -191 -281 -250 -456 -39 -115 -36 -127 5 -22
54 138 131 283 221 416 47 68 83 124 81 124 -2 0 -28 -28 -57 -62z"/>
<path d="M3955 3522 c-6 -37 -9 -41 -25 -32 -10 6 -22 19 -25 31 -15 46 -15 6
1 -82 21 -126 30 -517 15 -671 -53 -544 -225 -948 -496 -1167 l-40 -32 45 22
c44 21 180 129 210 166 141 175 224 323 305 548 56 156 77 205 85 205 4 0 13
59 20 132 14 143 8 492 -10 633 -13 102 -48 249 -65 271 -11 16 -13 13 -20
-24z"/>
<path d="M3305 3469 c98 -133 192 -362 216 -527 18 -130 7 -356 -24 -473 -52
-200 -132 -346 -256 -470 -47 -47 -108 -101 -136 -119 -44 -30 -40 -24 33 44
105 100 128 131 112 152 -11 12 -16 10 -35 -18 -26 -38 -134 -135 -221 -199
-331 -243 -800 -276 -1187 -83 -81 41 -79 36 9 -24 209 -139 457 -206 680
-183 239 25 419 102 599 255 33 29 78 65 100 81 96 71 209 192 283 305 41 63
79 128 83 145 6 24 7 26 8 7 1 -34 -28 -158 -55 -230 -50 -132 -132 -268 -205
-341 -119 -118 -337 -219 -600 -276 l-64 -13 66 -1 c82 -1 221 22 311 53 79
26 72 14 -22 -39 -98 -55 -217 -102 -337 -132 -99 -25 -125 -27 -303 -28 -179
0 -204 2 -300 27 -58 14 -142 42 -187 61 -46 19 -83 33 -83 31 0 -10 174 -104
235 -127 224 -85 596 -121 758 -73 32 10 65 15 73 12 7 -3 14 -1 14 5 0 6 7 8
16 5 8 -3 12 -2 9 3 -3 6 9 9 27 9 17 -1 34 4 36 10 2 7 7 10 12 7 9 -6 335
207 433 282 31 24 55 48 53 52 -3 4 10 32 29 62 19 29 35 59 35 66 0 7 5 13
10 13 6 0 10 6 10 13 0 6 14 47 30 89 44 113 61 205 66 368 2 80 9 168 14 195
16 80 28 245 24 310 -19 266 -174 568 -373 724 l-44 35 48 -65z"/>
<path d="M4040 3470 c0 -5 5 -10 11 -10 5 0 7 5 4 10 -3 6 -8 10 -11 10 -2 0
-4 -4 -4 -10z"/>
<path d="M2281 3445 c-75 -17 -167 -59 -242 -109 l-54 -36 -6 32 -6 33 -114
-115 c-162 -165 -221 -276 -236 -445 -11 -130 33 -289 112 -411 37 -55 320
-343 339 -344 4 0 6 9 3 21 -9 32 14 32 104 -2 78 -30 95 -33 234 -37 125 -3
167 0 249 17 55 12 101 19 104 17 12 -13 -152 -100 -248 -133 -59 -19 -241
-26 -310 -10 -52 11 -25 -7 50 -34 68 -25 170 -31 275 -17 62 8 83 17 162 65
60 37 168 149 198 205 8 14 40 61 71 105 70 96 128 218 145 301 38 195 -41
492 -172 645 -53 61 -67 60 -28 -2 39 -65 83 -185 104 -291 25 -122 17 -297
-19 -399 -50 -144 -170 -296 -287 -364 -53 -31 -136 -61 -194 -70 l-40 -7 38
15 c109 41 184 91 277 185 122 121 161 195 168 313 3 50 0 93 -9 119 l-13 40
-18 -82 c-9 -45 -36 -121 -59 -168 -80 -166 -265 -315 -440 -357 -190 -44
-388 8 -499 133 -27 31 -59 75 -70 99 -36 78 -61 202 -67 333 -10 227 46 381
192 526 64 64 100 90 166 123 119 58 190 74 341 75 71 1 128 4 128 7 0 13 -96
31 -180 35 -52 2 -110 -2 -149 -11z m-544 -687 c-3 -7 -5 -2 -5 12 0 14 2 19
5 13 2 -7 2 -19 0 -25z m3 -128 c0 -16 -2 -30 -4 -30 -2 0 -6 14 -8 30 -3 17
-1 30 4 30 4 0 8 -13 8 -30z"/>
<path d="M4067 3388 c-4 -12 -2 -27 3 -32 4 -6 8 -22 8 -36 0 -14 2 -43 5 -65
23 -229 29 -402 18 -551 -36 -476 -160 -880 -370 -1202 -103 -158 -226 -268
-382 -342 -33 -15 -56 -30 -52 -33 11 -7 156 44 223 78 291 148 453 393 565
855 51 213 60 316 59 685 0 279 -2 297 -33 474 -17 102 -33 186 -35 188 -2 2
-6 -6 -9 -19z"/>
<path d="M3099 3361 c36 -49 136 -267 169 -367 44 -131 57 -235 42 -335 -30
-206 -115 -375 -265 -524 -107 -108 -267 -214 -395 -261 -32 -11 -33 -13 -10
-14 147 -11 357 100 553 293 67 65 91 98 121 160 65 137 91 302 74 460 -19
182 -132 435 -251 567 -49 54 -69 65 -38 21z"/>
<path d="M2284 3230 c-34 -16 -81 -48 -105 -71 -47 -43 -46 -44 46 -5 33 14
83 28 110 31 l51 7 -4 34 c-5 42 -18 43 -98 4z"/>
<path d="M2314 3154 c-127 -30 -242 -127 -279 -234 -69 -199 12 -414 209 -554
35 -25 66 -53 70 -61 32 -83 -39 -134 -144 -105 -31 8 -33 8 -17 -4 43 -33
147 -27 188 10 36 33 24 68 -43 128 l-63 57 45 -20 c51 -22 183 -51 232 -51
131 1 266 97 317 227 58 148 12 308 -132 456 -38 40 -57 57 -42 38 93 -119
119 -276 63 -387 -63 -128 -231 -187 -383 -136 -56 19 -58 19 -35 1 46 -34
135 -76 190 -89 l55 -13 -35 -15 c-52 -21 -173 -12 -235 19 -105 51 -174 151
-195 282 -21 135 36 264 140 317 21 11 40 28 43 40 5 21 61 50 96 50 11 0 25
9 31 20 6 11 17 20 25 20 8 0 15 5 15 10 0 14 -42 11 -116 -6z"/>
<path d="M1191 3014 c0 -11 3 -14 6 -6 3 7 2 16 -1 19 -3 4 -6 -2 -5 -13z"/>
<path d="M2485 2950 c51 -76 57 -156 18 -235 -30 -60 -88 -105 -134 -105 -22
0 -22 0 -3 -21 52 -58 109 -60 176 -7 72 57 99 156 68 247 -18 55 -75 122
-129 154 l-30 18 34 -51z"/>
<path d="M2212 2929 c-63 -32 -94 -83 -100 -169 -2 -39 -2 -70 1 -70 3 0 10
31 17 68 19 114 72 172 155 172 47 0 79 -19 100 -60 32 -61 5 -147 -52 -172
-16 -7 -30 -13 -31 -14 -2 -2 4 -16 14 -32 l17 -30 23 31 c78 105 86 136 55
199 -40 83 -124 115 -199 77z"/>
<path d="M3359 1553 c-13 -16 -12 -17 4 -4 16 13 21 21 13 21 -2 0 -10 -8 -17
-17z"/>
<path d="M2588 1493 c6 -2 18 -2 25 0 6 3 1 5 -13 5 -14 0 -19 -2 -12 -5z"/>
</g>
</svg>